<svg xmlns="http://www.w3.org/2000/svg" viewBox="0 0 512 512">
  <defs>
    <linearGradient id="mane" x1="0%" y1="0%" x2="100%" y2="100%">
      <stop offset="0%" style="stop-color:#FF8C00;stop-opacity:1" />
      <stop offset="100%" style="stop-color:#FF4500;stop-opacity:1" />
    </linearGradient>
    <linearGradient id="face" x1="0%" y1="0%" x2="100%" y2="100%">
      <stop offset="0%" style="stop-color:#FFD700;stop-opacity:1" />
      <stop offset="100%" style="stop-color:#FFA500;stop-opacity:1" />
    </linearGradient>
  </defs>
  <!-- Mane -->
  <circle cx="256" cy="256" r="240" fill="url(#mane)" />
  <path d="M256 16 L300 100 L380 60 L360 140 L440 160 L380 220 L460 280 L380 340 L420 420 L340 380 L280 460 L232 460 L172 380 L92 420 L132 340 L52 280 L132 220 L72 160 L152 140 L132 60 L212 100 Z" fill="#FF4500" opacity="0.3" />
  
  <!-- Ears -->
  <circle cx="156" cy="156" r="30" fill="#FFA500" />
  <circle cx="356" cy="156" r="30" fill="#FFA500" />
  <circle cx="156" cy="156" r="15" fill="#8B4513" opacity="0.5" />
  <circle cx="356" cy="156" r="15" fill="#8B4513" opacity="0.5" />

  <!-- Face -->
  <path d="M156 156 Q256 100 356 156 Q380 256 356 356 Q256 420 156 356 Q132 256 156 156 Z" fill="url(#face)" />
  
  <!-- Eyes -->
  <circle cx="206" cy="236" r="20" fill="#333" />
  <circle cx="306" cy="236" r="20" fill="#333" />
  <circle cx="212" cy="230" r="6" fill="#FFF" />
  <circle cx="312" cy="230" r="6" fill="#FFF" />
  
  <!-- Nose -->
  <path d="M236 300 Q256 290 276 300 L256 340 Z" fill="#8B4513" />
  
  <!-- Mouth -->
  <path d="M256 340 L256 370 Q216 390 196 360" fill="none" stroke="#8B4513" stroke-width="8" stroke-linecap="round" />
  <path d="M256 340 L256 370 Q296 390 316 360" fill="none" stroke="#8B4513" stroke-width="8" stroke-linecap="round" />
  
  <!-- Whiskers -->
  <line x1="160" y1="310" x2="100" y2="300" stroke="#333" stroke-width="4" opacity="0.6" />
  <line x1="160" y1="325" x2="100" y2="335" stroke="#333" stroke-width="4" opacity="0.6" />
  <line x1="352" y1="310" x2="412" y2="300" stroke="#333" stroke-width="4" opacity="0.6" />
  <line x1="352" y1="325" x2="412" y2="335" stroke="#333" stroke-width="4" opacity="0.6" />
</svg>
